<?xml version="1.0" encoding="UTF-8"?>
<svg id="Layer_1" xmlns="http://www.w3.org/2000/svg" version="1.1" viewBox="0 0 3349.2 800">
  <!-- Generator: Adobe Illustrator 29.1.0, SVG Export Plug-In . SVG Version: 2.1.0 Build 142)  -->
  <defs>
    <style>
      .st0 {
        fill: lime;
      }

      .st1 {
        fill: #fff;
      }
    </style>
  </defs>
  <g>
    <g>
      <path class="st1" d="M1696.1,439.7V125.9h-74.5v171.3c0,21.6-3,39.4-8.8,52.9-11.7,25.7-33.5,38.8-64.9,38.8s-42.1-9.5-50.8-28.2c-4.7-10.1-7.1-25-7.1-44.3V125.9h-75.4v190.4c0,36.2,4.5,63.7,13.4,82,15.5,32.3,46.4,48.6,91.8,48.6s29.9-2.1,41.7-6.2c11.6-4.1,23.9-12,36.6-23.4,3.9-3.4,7.4-7.4,10.2-11.9,3.4-5.3,5.4-8.3,6.3-9.5l10.5-13.2v57h70.9Z"/>
      <path class="st1" d="M1939.6,192.7c2.7,0,6.1,0,10.4.3,2.5.1,5.3.3,8.2.6v-75.1c-.9,0-1.5-.1-2-.1-.9,0-2.1-.1-3.5-.1-23.9,0-43.6,6.3-58.4,18.7-9.2,7.5-20.3,22-33.1,43l-11,18.1v-72h-69.4v313.8h73.9v-149.7c0-26.9,3.6-47.4,10.5-60.7,12.8-24.3,37.8-36.6,74.2-36.6"/>
      <rect class="st1" x="2030" y="125.9" width="74.5" height="313.8"/>
      <path class="st1" d="M2418,326.4c-16.6,33-50.9,54.3-87.9,54.3-54.2,0-98.3-44.1-98.3-98.3s44.1-98.3,98.3-98.3,71.3,21.3,87.9,54.3l59-34c-29-54.5-85.1-88.2-146.9-88.2-91.7,0-166.3,74.6-166.3,166.3s74.6,166.3,166.3,166.3,117.9-33.8,146.9-88.2l-59-34Z"/>
      <path class="st1" d="M2677.1,378.5c-53,0-96.1-43.1-96.1-96.1s43.1-96.1,96.1-96.1,96.1,43.1,96.1,96.1-43.1,96.1-96.1,96.1M2677.1,116.8c-91.3,0-165.6,74.3-165.6,165.6s74.3,165.6,165.6,165.6,165.6-74.3,165.6-165.6-74.3-165.6-165.6-165.6"/>
      <path class="st1" d="M3219.5,179.2c22.6,0,38.5,8.7,47.1,26,4.4,8.8,6.6,19.9,6.6,33.1v201.4h75.4l.6-199.3c0-20.6-1-36.4-2.9-47-3-15.4-8.8-28.6-17.3-39.2-10.6-13.1-22.6-22.3-35.5-27.5-13.2-5.3-26.7-7.9-40.2-7.9-20.5,0-39.3,4.3-55.8,12.8-15.4,8.4-28.6,21.8-39.2,39.9l-6.1,10.5-4.5-11.2c-6-14.9-14.8-27.3-26.2-36.7-14.1-10.1-33.2-15.2-56.7-15.2s-45.2,6-60.6,17.9c-8.7,6.7-18.3,18.3-28.5,34.6l-10.9,17.5v-62.2h-70.9v313.2h74.5v-190.1c0-18.6,2.5-33,7.5-42.8,9.4-17.8,27.7-26.8,54.2-26.8s39.3,9.1,47.5,27.1c4.4,9.6,6.5,24.2,6.5,44.6v188h73.9v-188c0-15.3,2.5-28.7,7.4-39.8,10-21.7,28.2-32.8,54.1-32.8"/>
      <path class="st1" d="M1207.9,113.6c-97.9,0-163.6,67.9-163.6,168.9s67.3,169.5,163.6,169.5,42.5-3.7,61.4-10.7c35.4-13.1,64-34.3,79.7-68.7l2.5-5.4h-70.6c-18,21.5-41.9,26.3-72.9,26.3-49.3,0-85.2-31.7-91.5-80.7l-.5-4h249l.3-2c1.5-9.9,2.2-20.1,2.2-32,0-94.9-65.6-161.2-159.5-161.2ZM1116.5,252.7l.7-4.2c8.4-46.4,42.9-76.3,87.7-76.3s86.7,31.5,90,76.7l.3,3.8h-178.7Z"/>
      <path class="st1" d="M2109.1,41.9c0,23.1-18.8,41.9-41.9,41.9s-41.9-18.8-41.9-41.9,18.8-41.9,41.9-41.9,41.9,18.7,41.9,41.9"/>
    </g>
    <g>
      <path class="st0" d="M124.9,124.9h218.8V0H110C49.2,0,0,49.2,0,110v233.8h124.9V124.9Z"/>
      <path class="st0" d="M489.7,400c0,49.5-40.2,89.7-89.7,89.7s-89.7-40.2-89.7-89.7,40.2-89.7,89.7-89.7,89.7,40.2,89.7,89.7"/>
      <path class="st0" d="M690,0h-233.8v124.9h218.8v218.8h124.9V110c0-60.7-49.2-110-110-110"/>
      <path class="st0" d="M675.1,456.2v218.8h-218.8v124.9h233.8c60.7,0,110-49.2,110-110v-233.8h-124.9Z"/>
      <path class="st0" d="M124.9,675.1v-218.8H0v233.8c0,60.7,49.2,110,110,110h233.8v-124.9H124.9Z"/>
    </g>
  </g>
  <g>
    <path class="st1" d="M1289.3,798h119.4v-15h-103.2v-64h93.2v-14.5h-93.2v-63.8h103.2v-15h-119.4v172.4Z"/>
    <path class="st1" d="M1516.3,622.6c-48.5,0-86.5,38.7-86.5,88.2s38,87.9,86.5,87.9,64.6-20.2,78.2-52.8l-15.8-4.3c-11.2,26.1-34.5,41.6-62.4,41.6s-70.2-31.8-70.2-72.4,7.6-39.3,21.3-52.9c12.8-12.7,30-19.7,48.4-19.7h.5c27.6,0,50.9,15.7,62.4,42.1l15.8-4.5c-13.8-32.8-43.7-53.1-78.2-53.1Z"/>
    <path class="st1" d="M1743.1,798h16.3v-172.4h-16.3v78.8h-105.3v-78.8h-16.3v172.4h16.3v-78.8h105.3v78.8Z"/>
    <path class="st1" d="M1953.1,798h16.3v-108.4h-16.3v108.4Z"/>
    <polygon class="st1" points="1963.5 625.6 1962.1 625.6 1852 625.6 1852 641.9 1962.1 641.9 1963.5 641.9 2070.5 641.9 2070.5 625.6 1963.5 625.6"/>
    <path class="st1" d="M1145.4,798h16.3v-108.4h-16.3v108.4Z"/>
    <polygon class="st1" points="1155 625.6 1154.3 625.6 1044.3 625.6 1044.3 641.9 1154.3 641.9 1155 641.9 1262.8 641.9 1262.8 625.6 1155 625.6"/>
    <path class="st1" d="M2208.7,798h18.5l-43.6-68.9,1.2-.2c24.7-4.7,41.4-25,41.4-50.4s-18.3-52.9-53.1-52.9h-73.8v172.4h16.3v-67.4h50.5l.2.4,42.5,67ZM2169.7,716.6h-54.3v-76.2h57.5c18.6,0,37.4,11.7,37.4,37.9s-16.7,38.4-40.6,38.4Z"/>
    <path class="st1" d="M2273.8,798h16.3v-172.4h-16.3v172.4Z"/>
    <path class="st1" d="M2339.7,798h76.3c33.9,0,54.1-17.3,54.1-46.2s-11-35.8-32.7-41.7l-2.6-.7,2.5-.9c17-5.8,26.8-20.2,26.8-39.8s-19.3-43.2-50.4-43.2h-74v172.4ZM2415.2,783.2h-59.7v-66.3h58c25.9,0,40.1,11.5,40.1,32.4s-14,33.9-38.4,33.9ZM2411.7,703.7h-56.3v-63.3h57.7c22.1,0,35.4,11.5,35.4,30.6s-14.5,32.6-36.9,32.6Z"/>
    <path class="st1" d="M2498.6,798h119.4v-15h-103.2v-64h93.2v-14.5h-93.2v-63.8h103.2v-15h-119.4v172.4Z"/>
    <path class="st1" d="M2645.7,772.6c19.9,18.2,41.8,27.2,67.1,27.4.3,0,.5,0,.8,0,20.9,0,39.1-6.3,50.2-17.5,7.9-7.9,11.9-17.8,11.8-29.5-.3-24.9-17.8-39.5-58.5-48.7-30-6.8-55.8-12.7-55.8-33.6s24.8-32.4,48.1-32.4,44.1,8.9,61.8,23.9v-17.7c-12.4-9.7-33.1-21.2-61.8-21.2s-64.1,16.7-64.1,47.7,23.7,37.2,62,45.7c37.7,8.8,52.4,19.1,52.4,36.8s-23,31.1-45.8,31.1-47-10.2-68.1-29.5v17.4Z"/>
  </g>
</svg>